<svg width="390" height="218" viewBox="0 0 390 218" fill="none" xmlns="http://www.w3.org/2000/svg">
<g style="mix-blend-mode:multiply" opacity="0.7">
<path d="M360.942 96.2447L220.374 15.0889L224.221 14.4315L219.133 5.90924L204.815 7.95457C203.346 8.04676 201.916 8.4625 200.627 9.17203L2.18127 123.735C-0.448445 125.245 -0.740608 127.533 1.52387 128.848L153 216.311C153.803 216.732 154.679 216.997 155.581 217.09C156.445 217.212 157.322 217.212 158.187 217.09H184.971L194.564 197.05L360.309 101.358C362.939 99.8484 363.207 97.5596 360.942 96.2447Z" fill="#70441D"/>
</g>
<path d="M389.261 90.7661L384.561 94.4185L236.275 8.80675C234.874 8.16159 233.34 7.85828 231.799 7.92177C230.258 7.98527 228.754 8.41376 227.411 9.17199L31.571 122.225L26.7012 118.695V126.559C26.7145 127.047 26.8657 127.521 27.1372 127.926C27.4087 128.331 27.7894 128.651 28.2352 128.848L179.687 216.31C181.088 216.956 182.622 217.259 184.163 217.195C185.703 217.132 187.207 216.703 188.55 215.945L386.996 101.358C388.554 100.481 389.261 99.3127 389.139 98.2413L389.261 90.7661Z" fill="#FDD2AB"/>
<path style="mix-blend-mode:multiply" d="M389.261 90.7661L384.561 94.4185L236.275 8.80675C234.874 8.16159 233.34 7.85828 231.799 7.92177C230.258 7.98527 228.754 8.41376 227.411 9.17199L31.571 122.225L26.7012 118.695V126.559C26.7145 127.047 26.8657 127.521 27.1372 127.926C27.4087 128.331 27.7894 128.651 28.2352 128.848L179.687 216.31C181.088 216.956 182.622 217.259 184.163 217.195C185.703 217.132 187.207 216.703 188.55 215.945L386.996 101.358C388.554 100.481 389.261 99.3127 389.139 98.2413L389.261 90.7661Z" fill="url(#paint0_linear_58_432)"/>
<path d="M159.405 202.383L157.944 201.53V197.196L159.405 198.049V202.383Z" fill="#212121"/>
<path d="M162.082 203.917L160.621 203.064V198.73L162.082 199.583V203.917Z" fill="#212121"/>
<path d="M164.763 205.451L163.277 204.623V200.289L164.763 201.141V205.451Z" fill="#212121"/>
<path d="M167.44 207.009L165.955 206.157V201.823L167.44 202.675V207.009Z" fill="#212121"/>
<path d="M170.094 208.543L168.633 207.691V203.357L170.094 204.209V208.543Z" fill="#212121"/>
<path d="M172.773 210.101L171.288 209.249V204.915L172.773 205.767V210.101Z" fill="#212121"/>
<path d="M179.785 208.275L28.3333 120.813C26.0445 119.522 26.3366 117.209 28.9663 115.7L227.412 1.25848C228.755 0.500252 230.259 0.0717577 231.8 0.00826017C233.341 -0.0552373 234.875 0.248075 236.275 0.893236L387.727 88.3312C389.992 89.646 389.724 91.9348 387.094 93.4445L188.648 207.886C187.307 208.648 185.805 209.08 184.264 209.148C182.723 209.216 181.188 208.917 179.785 208.275Z" fill="#FB9A40"/>
<path style="mix-blend-mode:multiply" opacity="0.7" d="M179.785 208.275L28.3333 120.813C26.0445 119.522 26.3366 117.209 28.9663 115.7L227.412 1.25848C228.755 0.500252 230.259 0.0717577 231.8 0.00826017C233.341 -0.0552373 234.875 0.248075 236.275 0.893236L387.727 88.3312C389.992 89.646 389.724 91.9348 387.094 93.4445L188.648 207.886C187.307 208.648 185.805 209.08 184.264 209.148C182.723 209.216 181.188 208.917 179.785 208.275Z" fill="url(#paint1_linear_58_432)"/>
<path d="M203.527 189.161L61.4252 107.129C60.3052 106.471 60.4512 105.351 61.7174 104.694L224.029 10.9008C224.689 10.5394 225.424 10.3359 226.176 10.3064C226.928 10.2768 227.677 10.4219 228.363 10.7303L370.465 92.7871C371.585 93.4202 371.439 94.5402 370.173 95.222L207.959 188.991C207.286 189.368 206.534 189.58 205.763 189.61C204.993 189.639 204.226 189.486 203.527 189.161Z" fill="#E0E0E0"/>
<path style="mix-blend-mode:multiply" d="M203.527 189.161L61.4252 107.129C60.3052 106.471 60.4512 105.351 61.7174 104.694L224.029 10.9008C224.689 10.5394 225.424 10.3359 226.176 10.3064C226.928 10.2768 227.677 10.4219 228.363 10.7303L370.465 92.7871C371.585 93.4202 371.439 94.5402 370.173 95.222L207.959 188.991C207.286 189.368 206.534 189.58 205.763 189.61C204.993 189.639 204.226 189.486 203.527 189.161Z" fill="url(#paint2_linear_58_432)"/>
<g style="mix-blend-mode:screen">
<path d="M203.527 189.161L61.4252 107.129C60.3052 106.471 60.4512 105.351 61.7174 104.694L224.029 10.9008C224.689 10.5394 225.424 10.3359 226.176 10.3064C226.928 10.2768 227.677 10.4219 228.363 10.7303L370.465 92.7871C371.585 93.4202 371.439 94.5402 370.173 95.222L207.959 188.991C207.286 189.368 206.534 189.58 205.763 189.61C204.993 189.639 204.226 189.486 203.527 189.161Z" fill="url(#paint3_linear_58_432)"/>
</g>
<path d="M118.766 160.794C123.298 160.794 126.972 158.668 126.972 156.046C126.972 153.424 123.298 151.298 118.766 151.298C114.234 151.298 110.561 153.424 110.561 156.046C110.561 158.668 114.234 160.794 118.766 160.794Z" fill="#FF8519"/>
<defs>
<linearGradient id="paint0_linear_58_432" x1="94.5867" y1="46.3775" x2="266.37" y2="143.287" gradientUnits="userSpaceOnUse">
<stop stop-color="#C99465"/>
<stop offset="0.97" stop-color="#FDD2AB" stop-opacity="0"/>
</linearGradient>
<linearGradient id="paint1_linear_58_432" x1="40.3131" y1="123.029" x2="371.121" y2="86.5293" gradientUnits="userSpaceOnUse">
<stop stop-color="#9C6028"/>
<stop offset="1" stop-color="#FB9A40" stop-opacity="0"/>
</linearGradient>
<linearGradient id="paint2_linear_58_432" x1="60.6704" y1="99.9458" x2="371.22" y2="99.9458" gradientUnits="userSpaceOnUse">
<stop stop-color="#ADADAD"/>
<stop offset="0.73" stop-color="#D4D4D4" stop-opacity="0.24"/>
<stop offset="0.95" stop-color="#E0E0E0" stop-opacity="0"/>
</linearGradient>
<linearGradient id="paint3_linear_58_432" x1="215.945" y1="10.3026" x2="215.945" y2="189.613" gradientUnits="userSpaceOnUse">
<stop stop-color="#FF822E"/>
<stop offset="1" stop-color="white"/>
</linearGradient>
</defs>
</svg>
